<svg width="52" height="52" viewBox="0 0 52 52" fill="none" xmlns="http://www.w3.org/2000/svg">
<circle cx="26" cy="26" r="23.5" fill="#7A3145" stroke="#D4BFC4" stroke-width="5"/>
<path d="M20.8174 33V31.2949L25.3701 26.8301C25.7979 26.3906 26.1553 26.001 26.4424 25.6611C26.7354 25.3213 26.9551 24.9932 27.1016 24.6768C27.248 24.3545 27.3213 24.0117 27.3213 23.6484C27.3213 23.2383 27.2275 22.8838 27.04 22.585C26.8525 22.2861 26.5947 22.0576 26.2666 21.8994C25.9443 21.7412 25.5752 21.6621 25.1592 21.6621C24.7256 21.6621 24.3477 21.75 24.0254 21.9258C23.7031 22.1016 23.4512 22.3506 23.2695 22.6729C23.0938 22.9951 23.0059 23.3789 23.0059 23.8242H20.7559C20.7559 22.998 20.9434 22.2803 21.3184 21.6709C21.6992 21.0557 22.2236 20.5781 22.8916 20.2383C23.5596 19.8984 24.3242 19.7285 25.1855 19.7285C26.0703 19.7285 26.8438 19.8926 27.5059 20.2207C28.168 20.5488 28.6836 21 29.0527 21.5742C29.4219 22.1426 29.6064 22.793 29.6064 23.5254C29.6064 24.0176 29.5127 24.501 29.3252 24.9756C29.1377 25.4443 28.8066 25.9688 28.332 26.5488C27.8633 27.123 27.2041 27.8174 26.3545 28.6318L24.1045 30.9258V31.0225H29.7998V33H20.8174Z" fill="#FBFBFB"/>
</svg>
