<svg width="52" height="52" viewBox="0 0 52 52" fill="none" xmlns="http://www.w3.org/2000/svg">
<circle cx="26" cy="26" r="23.5" fill="#7A3145" stroke="#D4BFC4" stroke-width="5"/>
<path d="M25.5195 33.1758C24.5996 33.1758 23.7822 33.0205 23.0674 32.71C22.3525 32.3936 21.7871 31.9541 21.3711 31.3916C20.9609 30.8291 20.7471 30.1787 20.7295 29.4404H23.1201C23.1377 29.7979 23.252 30.1084 23.4629 30.3721C23.6797 30.6299 23.9668 30.832 24.3242 30.9785C24.6816 31.1191 25.0801 31.1895 25.5195 31.1895C25.9883 31.1895 26.4014 31.1074 26.7588 30.9434C27.1221 30.7734 27.4062 30.5449 27.6113 30.2578C27.8164 29.9648 27.9189 29.6279 27.9189 29.2471C27.9189 28.8486 27.8135 28.4971 27.6025 28.1924C27.3975 27.8877 27.0986 27.6504 26.7061 27.4805C26.3135 27.3105 25.8418 27.2256 25.291 27.2256H24.1221V25.3975H25.291C25.7363 25.3975 26.1318 25.3184 26.4775 25.1602C26.8232 25.002 27.0928 24.7822 27.2861 24.501C27.4795 24.2139 27.5762 23.8799 27.5762 23.499C27.5762 23.1299 27.4912 22.8076 27.3213 22.5322C27.1572 22.2568 26.9229 22.043 26.6182 21.8906C26.3135 21.7383 25.9561 21.6621 25.5459 21.6621C25.1475 21.6621 24.7754 21.7354 24.4297 21.8818C24.0898 22.0225 23.8145 22.2246 23.6035 22.4883C23.3984 22.752 23.29 23.0684 23.2783 23.4375H21.002C21.0137 22.7051 21.2217 22.0605 21.626 21.5039C22.0361 20.9473 22.584 20.5137 23.2695 20.2031C23.9551 19.8867 24.7227 19.7285 25.5723 19.7285C26.4395 19.7285 27.1953 19.8926 27.8398 20.2207C28.4902 20.543 28.9912 20.9795 29.3428 21.5303C29.7002 22.0811 29.8789 22.6875 29.8789 23.3496C29.8789 24.0879 29.6621 24.7061 29.2285 25.2041C28.7949 25.7021 28.2236 26.0303 27.5146 26.1885V26.2852C28.4287 26.4141 29.1289 26.7539 29.6152 27.3047C30.1074 27.8555 30.3535 28.541 30.3535 29.3613C30.3535 30.0938 30.1455 30.75 29.7295 31.3301C29.3135 31.9043 28.7422 32.3555 28.0156 32.6836C27.2891 33.0117 26.457 33.1758 25.5195 33.1758Z" fill="#FBFBFB"/>
</svg>
