<svg aria-hidden="true" style="position: absolute; width: 0; height: 0; overflow: hidden;" version="1.1" xmlns="http://www.w3.org/2000/svg" xmlns:xlink="http://www.w3.org/1999/xlink">
<defs>
<symbol id="icon-1" viewBox="0 0 32 32">
<path fill="#7a3145" stroke="#d4bfc4" stroke-width="3.0769" stroke-miterlimit="4" stroke-linecap="butt" stroke-linejoin="miter" style="fill: var(--color1, #7a3145); stroke: var(--color2, #d4bfc4)" d="M30.462 16c0 7.987-6.475 14.462-14.462 14.462s-14.462-6.475-14.462-14.462c0-7.987 6.475-14.462 14.462-14.462s14.462 6.475 14.462 14.462z"></path>
<path fill="#fbfbfb" style="fill: var(--color3, #fbfbfb)" d="M17.216 12.249v8.059h-1.45v-6.636h-0.049l-1.882 1.206v-1.341l2.001-1.287h1.379z"></path>
</symbol>
<symbol id="icon-2" viewBox="0 0 32 32">
<path fill="#7a3145" stroke="#d4bfc4" stroke-width="3.0769" stroke-miterlimit="4" stroke-linecap="butt" stroke-linejoin="miter" style="fill: var(--color1, #7a3145); stroke: var(--color2, #d4bfc4)" d="M30.462 16c0 7.987-6.475 14.462-14.462 14.462s-14.462-6.475-14.462-14.462c0-7.987 6.475-14.462 14.462-14.462s14.462 6.475 14.462 14.462z"></path>
<path fill="#fbfbfb" style="fill: var(--color3, #fbfbfb)" d="M12.811 20.308v-1.049l2.802-2.748c0.263-0.27 0.483-0.51 0.66-0.719 0.18-0.209 0.316-0.411 0.406-0.606 0.090-0.198 0.135-0.409 0.135-0.633 0-0.252-0.058-0.471-0.173-0.654s-0.274-0.325-0.476-0.422c-0.198-0.097-0.425-0.146-0.681-0.146-0.267 0-0.499 0.054-0.698 0.162s-0.353 0.261-0.465 0.46c-0.108 0.198-0.162 0.434-0.162 0.709h-1.385c0-0.508 0.115-0.95 0.346-1.325 0.234-0.379 0.557-0.672 0.968-0.882s0.882-0.314 1.412-0.314c0.544 0 1.020 0.101 1.428 0.303s0.725 0.48 0.952 0.833c0.227 0.35 0.341 0.75 0.341 1.201 0 0.303-0.058 0.6-0.173 0.892-0.115 0.288-0.319 0.611-0.611 0.968-0.288 0.353-0.694 0.781-1.217 1.282l-1.385 1.412v0.059h3.505v1.217h-5.528z"></path>
</symbol>
<symbol id="icon-3" viewBox="0 0 32 32">
<path fill="#7a3145" stroke="#d4bfc4" stroke-width="3.0769" stroke-miterlimit="4" stroke-linecap="butt" stroke-linejoin="miter" style="fill: var(--color1, #7a3145); stroke: var(--color2, #d4bfc4)" d="M30.462 16c0 7.987-6.475 14.462-14.462 14.462s-14.462-6.475-14.462-14.462c0-7.987 6.475-14.462 14.462-14.462s14.462 6.475 14.462 14.462z"></path>
<path fill="#fbfbfb" style="fill: var(--color3, #fbfbfb)" d="M15.704 20.416c-0.566 0-1.069-0.096-1.509-0.287-0.44-0.195-0.788-0.465-1.044-0.811-0.252-0.346-0.384-0.746-0.395-1.201h1.471c0.011 0.22 0.081 0.411 0.211 0.573 0.133 0.159 0.31 0.283 0.53 0.373 0.22 0.087 0.465 0.13 0.736 0.13 0.288 0 0.543-0.051 0.763-0.151 0.224-0.105 0.398-0.245 0.525-0.422 0.126-0.18 0.189-0.388 0.189-0.622 0-0.245-0.065-0.462-0.195-0.649-0.126-0.188-0.31-0.334-0.552-0.438s-0.532-0.157-0.871-0.157h-0.719v-1.125h0.719c0.274 0 0.517-0.049 0.73-0.146s0.379-0.233 0.498-0.406c0.119-0.177 0.179-0.382 0.179-0.617 0-0.227-0.052-0.425-0.157-0.595-0.101-0.169-0.245-0.301-0.433-0.395s-0.407-0.141-0.66-0.141c-0.245 0-0.474 0.045-0.687 0.135-0.209 0.087-0.379 0.211-0.508 0.373-0.126 0.162-0.193 0.357-0.2 0.584h-1.401c0.007-0.451 0.135-0.847 0.384-1.19 0.252-0.343 0.59-0.609 1.011-0.8 0.422-0.195 0.894-0.292 1.417-0.292 0.534 0 0.999 0.101 1.395 0.303 0.4 0.198 0.709 0.467 0.925 0.806 0.22 0.339 0.33 0.712 0.33 1.12 0 0.454-0.133 0.835-0.4 1.141s-0.618 0.508-1.055 0.606v0.059c0.563 0.079 0.993 0.288 1.293 0.627 0.303 0.339 0.454 0.761 0.454 1.266 0 0.451-0.128 0.855-0.384 1.212-0.256 0.353-0.608 0.631-1.055 0.833s-0.959 0.303-1.536 0.303z"></path>
</symbol>
</defs>
</svg>
